<?xml version="1.0" encoding="UTF-8" standalone="no"?>
<!-- Created with Inkscape (http://www.inkscape.org/) -->

<svg
   width="3744"
   height="3600"
   viewBox="0 0 3744 3600"
   version="1.1"
   id="svg1"
   xmlns="http://www.w3.org/2000/svg"
   xmlns:svg="http://www.w3.org/2000/svg">
  <defs
     id="defs1" />
  <g
     id="layer1"
     transform="translate(72)">
    <rect
       style="fill:#ff1919;fill-opacity:1;stroke-width:0.950598"
       id="rect1"
       width="600"
       height="600"
       x="0"
       y="0.00039490842" />
    <rect
       style="fill:#ff1919;fill-opacity:1;stroke-width:0.950598"
       id="rect1-8"
       width="600"
       height="600"
       x="3000"
       y="0"
       ry="0" />
    <rect
       style="fill:#000cf1;fill-opacity:1;stroke-width:0.950598"
       id="rect1-1"
       width="600"
       height="600"
       x="0"
       y="3000" />
    <rect
       style="fill:#000cf1;fill-opacity:1;stroke-width:0.950598"
       id="rect1-8-7"
       width="600"
       height="600"
       x="3000"
       y="3000"
       ry="0" />
    <rect
       style="fill:#666666;fill-opacity:1"
       id="rect2"
       width="2186"
       height="306"
       x="707"
       y="0"
       rx="0"
       ry="0" />
    <rect
       style="fill:#666666;fill-opacity:1"
       id="rect2-8"
       width="2186"
       height="306"
       x="707"
       y="3294"
       rx="0"
       ry="0" />
    <rect
       style="fill:#000000;stroke-width:0.241747"
       id="rect3"
       width="270"
       height="72"
       x="1665"
       y="0"
       rx="0"
       ry="0"
       transform="rotate(90)" />
    <rect
       style="fill:#000000;stroke-width:0.241747"
       id="rect3-1"
       width="270"
       height="72"
       x="1665"
       y="-3672"
       rx="0"
       ry="0"
       transform="rotate(90)" />
    <rect
       style="fill:#aad400;stroke-width:0.32383"
       id="rect4"
       width="3600"
       height="25"
       x="0"
       y="1200"
       rx="0"
       ry="0" />
    <rect
       style="fill:#aad400;stroke-width:0.32383"
       id="rect4-2"
       width="3600"
       height="25"
       x="0"
       y="2400"
       rx="0"
       ry="0" />
    <rect
       style="fill:#aad400;stroke-width:0.518184"
       id="rect5-6"
       width="225"
       height="140"
       x="1466"
       y="1060" />
    <rect
       style="fill:#aad400;stroke-width:0.518184"
       id="rect5-6-1"
       width="225"
       height="140"
       x="1912.5"
       y="1060" />
    <rect
       style="fill:#aad400;stroke-width:0.518184"
       id="rect5-6-9"
       width="225"
       height="140"
       x="1466"
       y="2425" />
    <rect
       style="fill:#aad400;stroke-width:0.518184"
       id="rect5-6-1-5"
       width="225"
       height="140"
       x="1912.5"
       y="2425" />
    <rect
       style="fill:#4d4d4d;stroke-width:0.115072"
       id="rect5"
       width="25"
       height="25"
       x="1200"
       y="1200" />
    <rect
       style="fill:#4d4d4d;stroke-width:0.115072"
       id="rect5-3"
       width="25"
       height="25"
       x="2400"
       y="1200" />
    <rect
       style="fill:#4d4d4d;stroke-width:0.115072"
       id="rect5-38"
       width="25"
       height="25"
       x="1200"
       y="2400" />
    <rect
       style="fill:#4d4d4d;stroke-width:0.115072"
       id="rect5-3-7"
       width="25"
       height="25"
       x="2400"
       y="2400" />
    <circle
       style="fill:#ff0000;stroke-width:0.214901"
       id="path5"
       cx="1215"
       cy="915"
       r="15" />
    <circle
       style="fill:#ff0000;stroke-width:0.214901"
       id="path5-9"
       cx="2415"
       cy="915"
       r="15" />
    <circle
       style="fill:#0000ff;stroke-width:0.214901"
       id="path5-6"
       cx="1215"
       cy="2715"
       r="15" />
    <circle
       style="fill:#0000ff;stroke-width:0.214901"
       id="path5-9-5"
       cx="2415"
       cy="2715"
       r="15" />
  </g>
</svg>
